<svg xmlns="http://www.w3.org/2000/svg">
  <symbol id="icon-devider" viewBox="0 0 2 32">
    <path stroke-linejoin="miter" stroke-linecap="butt" stroke-miterlimit="4" stroke-width="2" d="M1 0v32"></path>
  </symbol>
  <symbol id="icon-heart" viewBox="0 0 32 32">
    <path stroke-linejoin="round" stroke-linecap="round" stroke-miterlimit="4" stroke-width="2.4615" d="M27.787 6.147c-0.681-0.681-1.49-1.222-2.379-1.591s-1.844-0.559-2.807-0.559-1.917 0.19-2.807 0.559c-0.89 0.369-1.699 0.909-2.38 1.591l-1.413 1.413-1.413-1.413c-1.376-1.376-3.241-2.148-5.187-2.148s-3.811 0.773-5.187 2.148c-1.376 1.376-2.148 3.241-2.148 5.187s0.773 3.811 2.148 5.187l11.787 11.787 11.787-11.787c0.681-0.681 1.222-1.49 1.591-2.38s0.559-1.844 0.559-2.807-0.19-1.917-0.559-2.807c-0.369-0.89-0.909-1.699-1.591-2.38z"></path>
  </symbol>
  <symbol id="icon-question-mark" viewBox="0 0 32 32">
    <path fill="#54be96" style="fill: var(--color1, #54be96)" d="M6.308 5.071l12.616-3.381c3.484-0.933 7.065 1.134 7.998 4.618l3.381 12.616c0.933 3.484-1.134 7.065-4.618 7.998l-12.616 3.381c-3.484 0.933-7.065-1.134-7.998-4.618l-3.381-12.616c-0.933-3.484 1.134-7.065 4.618-7.998z"></path>
    <path fill="#fbfbfb" style="fill: var(--color2, #fbfbfb)" d="M14.041 13.918c0-0.765 0.586-1.388 1.306-1.388h0.653c0.72 0 1.306 0.622 1.306 1.388v0.078c0 0.473-0.227 0.913-0.6 1.167l-0.861 0.588c-0.253 0.173-0.461 0.41-0.605 0.691s-0.22 0.595-0.22 0.914v0.033c0 0.384 0.292 0.694 0.653 0.694s0.653-0.31 0.653-0.694v-0.030c0-0.178 0.086-0.343 0.225-0.438l0.861-0.588c0.747-0.512 1.2-1.39 1.2-2.335v-0.078c0-1.533-1.169-2.775-2.612-2.775h-0.653c-1.443 0-2.612 1.242-2.612 2.776 0 0.384 0.292 0.694 0.653 0.694s0.653-0.31 0.653-0.694zM15.673 20.857c0.216 0 0.424-0.091 0.577-0.254s0.239-0.383 0.239-0.613c0-0.23-0.086-0.451-0.239-0.613s-0.361-0.254-0.577-0.254-0.424 0.091-0.577 0.254c-0.153 0.163-0.239 0.383-0.239 0.613s0.086 0.451 0.239 0.613 0.361 0.254 0.577 0.254z"></path>
  </symbol>
  <symbol id="icon-contacts" viewBox="0 0 32 32">
    <path fill="#fbc75e" style="fill: var(--color3, #fbc75e)" d="M12.001 1.404l14.76 3.955c2.893 0.775 4.61 3.749 3.835 6.643l-3.955 14.76c-0.775 2.893-3.749 4.61-6.643 3.835l-14.76-3.955c-2.893-0.775-4.61-3.749-3.835-6.643l3.955-14.76c0.775-2.893 3.749-4.61 6.643-3.835z"></path>
    <path fill="#fbfbfb" style="fill: var(--color2, #fbfbfb)" d="M17.289 18.766l-0.232 0.866-6.062-1.624 0.232-0.866c0 0 0.464-1.732 3.495-0.92s2.567 2.544 2.567 2.544zM16.876 14.247c0.080-0.3 0.070-0.617-0.030-0.91s-0.284-0.552-0.531-0.74-0.543-0.301-0.852-0.321c-0.31-0.020-0.618 0.052-0.887 0.207s-0.485 0.386-0.623 0.665c-0.137 0.278-0.189 0.591-0.148 0.899s0.171 0.596 0.376 0.83c0.205 0.233 0.474 0.401 0.773 0.481 0.402 0.108 0.83 0.051 1.191-0.157s0.623-0.551 0.731-0.953zM17.727 17.028c0.211 0.277 0.359 0.598 0.433 0.938s0.072 0.693-0.005 1.033l-0.232 0.866 1.732 0.464 0.232-0.866c0 0 0.421-1.572-2.16-2.435zM18.365 13.022c-0.298-0.082-0.613-0.070-0.904 0.031 0.165 0.438 0.188 0.916 0.067 1.368s-0.381 0.855-0.742 1.152c0.201 0.234 0.469 0.401 0.767 0.479 0.402 0.108 0.83 0.051 1.191-0.157s0.623-0.551 0.731-0.953c0.108-0.402 0.051-0.83-0.157-1.191s-0.551-0.623-0.953-0.731z"></path>
  </symbol>
  <symbol id="icon-tick" viewBox="0 0 32 32">
    <path d="M27.331 1.875l-14.662 19.331-8.669-8.662-4 4 13.331 13.331 18.669-24z"></path>
  </symbol>
  <symbol id="icon-arrow-top-right" viewBox="0 0 32 32">
    <path d="M24.533 6.4c0.589 0 1.067 0.478 1.067 1.067v0 11.733l-0.021 0.218c-0.103 0.49-0.532 0.853-1.045 0.853s-0.944-0.364-1.044-0.849l-0.001-0.007-0.021-0.215v-9.158l-14.18 14.18c-0.192 0.185-0.453 0.299-0.741 0.299-0.589 0-1.067-0.478-1.067-1.067 0-0.288 0.114-0.549 0.3-0.741l-0 0 14.18-14.18h-9.158c-0.589 0-1.067-0.478-1.067-1.067s0.478-1.067 1.067-1.067v0z"></path>
  </symbol>
  <symbol id="icon-close" viewBox="0 0 32 32">
    <path d="M16 17.885l7.543 7.543c0.24 0.232 0.566 0.374 0.926 0.374 0.736 0 1.333-0.597 1.333-1.333 0-0.36-0.143-0.687-0.375-0.927l-7.542-7.542 7.543-7.543c0.232-0.24 0.374-0.566 0.374-0.926 0-0.736-0.597-1.333-1.333-1.333-0.36 0-0.687 0.143-0.927 0.375l-7.542 7.542-7.543-7.543c-0.238-0.223-0.559-0.361-0.912-0.361-0.736 0-1.333 0.597-1.333 1.333 0 0.353 0.138 0.675 0.362 0.913l-0.001-0.001 7.541 7.543-7.543 7.543c-0.251 0.243-0.407 0.583-0.407 0.959 0 0.736 0.597 1.333 1.333 1.333 0.376 0 0.716-0.156 0.959-0.407l0-0z"></path>
  </symbol>
</svg>